PathFileType	4	(X/Y/Z)	./resultDataOpenSim/trcMotMarkerGrf/sub09/qtm-04-02.trc
DataRate	CameraRate	NumFrames	NumMarkers	Units	OrigDataRate	OrigDataStartFrame	OrigNumFrames
250.000000	250.000000	10	24	m	250.000000	1	493
Frame#	Time	L.Toe.Tip			R.Toe.Tip			L.Ankle.Lat			R.Ankle.Lat			L.Ankle.Med			R.Ankle.Med			L.Heel			R.Heel			L.Knee.Lat			R.Knee.Lat			L.Knee.Med			R.Knee.Med			L.Thigh.Upper			R.Thigh.Upper			L.ASIS			R.ASIS			V.Sacral			L.Acromium			R.Acromium			C7			L.Elbow			R.Elbow			L.Wrist.Lat			R.Wrist.Lat
		X1	Y1	Z1	X2	Y2	Z2	X3	Y3	Z3	X4	Y4	Z4	X5	Y5	Z5	X6	Y6	Z6	X7	Y7	Z7	X8	Y8	Z8	X9	Y9	Z9	X10	Y10	Z10	X11	Y11	Z11	X12	Y12	Z12	X13	Y13	Z13	X14	Y14	Z14	X15	Y15	Z15	X16	Y16	Z16	X17	Y17	Z17	X18	Y18	Z18	X19	Y19	Z19	X20	Y20	Z20	X21	Y21	Z21	X22	Y22	Z22	X23	Y23	Z23	X24	Y24	Z24

1	0	-1.5083519	0.03608467	-0.0042101123	-0.90091804	0.091454248	0.1137568	-1.6568354	0.085200779	-0.032924388	-1.0513423	0.072742302	0.13964946	-1.6273887	0.10086469	0.059304349	-1.0435826	0.11283965	0.049136686	NaN	NaN	NaN	-1.1025996	0.034587551	0.083188882	-1.4994578	0.4720776	-0.10284986	-1.1317608	0.52553296	0.18334326	-1.494288	0.47409347	0.024518475	-1.1325812	0.50491522	0.056030093	-1.3751529	0.87322704	-0.15104199	-1.3416719	0.87399753	0.21839006	-1.2663202	0.94481736	-0.098752057	-1.2592715	0.95429123	0.14078	-1.4237828	1.0143682	0.030541433	-1.2288621	1.4106093	-0.12383318	-1.2796374	1.4087016	0.20134776	-1.3181541	1.4615282	0.037032177	-1.3031121	1.0393931	-0.20247277	-1.4582968	1.0983597	0.26069346	-1.037304	0.96899002	-0.18938014	-1.4090158	0.83926458	0.32159471
2	0.004	-1.5087221	0.03603066	-0.0039956078	-0.88460925	0.095492513	0.1138258	-1.6563122	0.086175531	-0.033179961	-1.0349449	0.073069973	0.13964904	-1.6269496	0.10163804	0.059121097	-1.0278995	0.11344923	0.049348944	NaN	NaN	NaN	-1.0847589	0.033826553	0.083361497	-1.4959009	0.47205564	-0.10304698	-1.1256236	0.52387521	0.18358642	-1.4910321	0.47401243	0.024369817	-1.1257539	0.50327843	0.056109765	-1.369576	0.87200558	-0.15135671	-1.3351521	0.87249456	0.21878452	-1.2604886	0.94355989	-0.098635345	-1.2530007	0.95286452	0.14094953	-1.4170232	1.0128562	0.032175476	-1.2225476	1.4093541	-0.12351341	-1.2735734	1.4073057	0.2016969	-1.3119669	1.4602708	0.037246552	-1.2958327	1.0377868	-0.20222909	-1.4523695	1.0972223	0.26082513	-1.0294042	0.96996409	-0.18856227	-1.4047915	0.83794199	0.32232326
3	0.008	-1.5089183	0.036010229	-0.0038885422	-0.86853659	0.099571171	0.11371229	-1.6557803	0.087196183	-0.033451235	-1.0185389	0.073618038	0.13977697	-1.6264225	0.10244781	0.058908776	-1.0124917	0.11413328	0.049519725	NaN	NaN	NaN	-1.0670722	0.033177634	0.083644914	-1.4922658	0.47200917	-0.10318065	-1.1194067	0.52223445	0.1837695	-1.4875744	0.4739312	0.024231116	-1.1189929	0.50167008	0.056172564	-1.363965	0.87092617	-0.15138054	-1.3286634	0.87094916	0.21913455	-1.2547123	0.94228721	-0.098592427	-1.246606	0.95145183	0.141093	-1.4103208	1.0113329	0.033737615	-1.2162157	1.4080978	-0.12319543	-1.2675186	1.4059273	0.20201773	-1.3057589	1.4590071	0.03746566	-1.2885444	1.0361907	-0.20199262	-1.446443	1.0961355	0.26088379	-1.0215341	0.97088389	-0.18776394	-1.4005352	0.83657451	0.32301229
4	0.012	-1.5088634	0.036016856	-0.003937275	-0.85289827	0.10368815	0.11344506	-1.6552366	0.088262901	-0.033751776	-1.0018736	0.074626784	0.14018222	-1.6257865	0.10330079	0.058655917	-0.99748408	0.11492344	0.04965671	NaN	NaN	NaN	-1.0498188	0.032649448	0.084172907	-1.488486	0.47192669	-0.10325973	-1.1130972	0.52061597	0.18388482	-1.4839025	0.47384025	0.024131359	-1.1123664	0.50009244	0.056195424	-1.3582959	0.87000672	-0.15107962	-1.3221318	0.86935555	0.21943491	-1.2489257	0.94102764	-0.0986065	-1.2400391	0.95006111	0.14121359	-1.4037692	1.009792	0.035010668	-1.2098564	1.4068377	-0.12288469	-1.2614494	1.4045613	0.2023107	-1.299505	1.4577219	0.037694721	-1.2812502	1.034615	-0.20178533	-1.4403734	1.0950293	0.26081231	-1.0137052	0.97172453	-0.18699624	-1.3959949	0.83520303	0.32367561
5	0.016	-1.5086351	0.036027711	-0.0040902859	-0.83786009	0.10778171	0.1132099	-1.6546737	0.08936724	-0.034085501	-0.98486613	0.076167267	0.14090126	-1.6250833	0.10418658	0.058366689	-0.98292196	0.11580258	0.049795978	NaN	NaN	NaN	-1.0333198	0.032196948	0.084993754	-1.4845428	0.47180448	-0.10332541	-1.1067409	0.51901507	0.18396289	-1.4801199	0.47371725	0.02410266	-1.1058794	0.49853919	0.056168327	-1.3525704	0.86916623	-0.15060448	-1.3154737	0.86772906	0.21970529	-1.2430395	0.93982277	-0.09861852	-1.2333415	0.94868854	0.1413319	-1.3973955	1.0082496	0.035897612	-1.2034741	1.4055729	-0.12257878	-1.2553327	1.4031981	0.20259478	-1.2931992	1.4564168	0.037939243	-1.2739703	1.0330684	-0.20159265	-1.4340556	1.0938064	0.26065181	-1.0058965	0.97248073	-0.18624427	-1.3909253	0.83390412	0.32434842
6	0.02	-1.5083776	0.036033299	-0.0042548421	-0.82349181	0.11176035	0.11313562	-1.6540675	0.090519761	-0.034451151	-0.96817994	0.077901308	0.14168666	-1.6243477	0.10509779	0.058044205	-0.96883623	0.11672838	0.049953073	NaN	NaN	NaN	-1.0176559	0.031825669	0.085965296	-1.4804473	0.47163533	-0.10338878	-1.1003364	0.51743659	0.1840426	-1.4762733	0.47353441	0.024148281	-1.0994486	0.49700806	0.056106414	-1.3467931	0.86832028	-0.15009486	-1.3086473	0.86608226	0.21997092	-1.2370279	0.9386731	-0.098604381	-1.2265805	0.94731868	0.14145755	-1.3910998	1.0067439	0.036548651	-1.1970605	1.404301	-0.12226068	-1.2491379	1.4018354	0.2028888	-1.2868464	1.4551121	0.03820202	-1.2667099	1.0315463	-0.20135514	-1.4275992	1.0924799	0.26053086	-0.99806823	0.97314807	-0.18547491	-1.3853216	0.8326877	0.32504086
7	0.024	-1.5081703	0.036035056	-0.0043833819	-0.8097776	0.11554423	0.11319785	-1.6533946	0.091728467	-0.034855645	-0.95278476	0.079332121	0.14217776	-1.6235713	0.10602992	0.057685106	-0.95524535	0.11766014	0.050114612	NaN	NaN	NaN	-1.0027045	0.03157734	0.086843149	-1.4761989	0.47141829	-0.10344531	-1.0938128	0.51590999	0.18415523	-1.4722781	0.47328493	0.024224894	-1.092995	0.49549933	0.056034425	-1.3409617	0.86742419	-0.14960935	-1.3016411	0.86442431	0.22025096	-1.2309142	0.93754149	-0.098581829	-1.219798	0.94594026	0.14158243	-1.3847597	1.0053042	0.037151623	-1.1906004	1.4030208	-0.12191788	-1.2428578	1.4004723	0.20319813	-1.2804548	1.4538188	0.038482666	-1.2594645	1.0300385	-0.20104813	-1.4211776	1.0911308	0.26052778	-0.99025632	0.97372106	-0.18468468	-1.3793704	0.83150337	0.32573929
8	0.028	-1.5080101	0.036037343	-0.0044806778	-0.79668096	0.11910257	0.11325138	-1.6526553	0.092995385	-0.035308421	-0.93886335	0.08032979	0.1422837	-1.6227344	0.10698906	0.057287823	-0.94216439	0.118572	0.050254962	NaN	NaN	NaN	-0.98837607	0.031462152	0.087455634	-1.4717706	0.47116807	-0.10351119	-1.0870845	0.51447601	0.1843145	-1.4679911	0.47299262	0.024263017	-1.0864957	0.49402183	0.055974297	-1.3350685	0.86646873	-0.14914597	-1.2944702	0.86276204	0.2205485	-1.2247375	0.93639572	-0.098580174	-1.2130018	0.9445589	0.14169571	-1.378325	1.0039172	0.03778673	-1.1840928	1.4017351	-0.12155795	-1.2365168	1.3991105	0.20351265	-1.2740328	1.4525302	0.038780508	-1.2522403	1.0285498	-0.2007249	-1.4148319	1.0898029	0.26061898	-0.9825598	0.97419881	-0.18390638	-1.3732765	0.83031554	0.32642738
9	0.032	-1.5078643	0.036043858	-0.0045676254	-0.78418387	0.12242325	0.11311452	-1.6518686	0.094325999	-0.03580159	-0.92585172	0.081098865	0.14218459	-1.6218315	0.10799708	0.056855267	-0.92964875	0.11943265	0.050341968	NaN	NaN	NaN	-0.97464423	0.031459865	0.087770051	-1.4671381	0.47089372	-0.10359121	-1.0800952	0.51317162	0.18452503	-1.4633626	0.47267808	0.024222543	-1.079958	0.49259969	0.055943898	-1.3291039	0.8654717	-0.14868206	-1.2871665	0.86110206	0.22085612	-1.2185577	0.93522836	-0.098624402	-1.2061755	0.94319446	0.14179658	-1.3718263	1.0025352	0.038450543	-1.177552	1.4004509	-0.12119668	-1.2301465	1.3977566	0.20382548	-1.2675885	1.4512441	0.039093997	-1.245052	1.0270951	-0.20044739	-1.4085085	1.0884993	0.26075627	-0.97500934	0.97459154	-0.18316006	-1.3671477	0.82912571	0.32709513
10	0.036	-1.5077066	0.03605454	-0.0046584518	-0.77228548	0.12542832	0.11271031	-1.6510433	0.095728775	-0.036319134	-0.91332779	0.08177211	0.14202599	-1.6208608	0.10907103	0.056391079	-0.91775419	0.12019293	0.050350085	NaN	NaN	NaN	-0.96143152	0.03154964	0.087852894	-1.4623056	0.47057973	-0.10364776	-1.0728607	0.51201478	0.18479033	-1.4584495	0.47233612	0.024129274	-1.0733766	0.49126095	0.055952145	-1.3230597	0.86446182	-0.14820405	-1.2797634	0.85944942	0.22116678	-1.2124306	0.93404137	-0.098730198	-1.1992925	0.94186574	0.14189072	-1.3653066	1.0011221	0.039119631	-1.170992	1.3991768	-0.12084188	-1.2237429	1.3964157	0.20414101	-1.2611252	1.4499717	0.03942231	-1.2379038	1.0256781	-0.20020883	-1.4021517	1.0872161	0.26092323	-0.96754781	0.97491717	-0.18243727	-1.3609861	0.82794205	0.32774035
